<svg width="647" height="361" viewBox="0 0 647 361" fill="none" xmlns="http://www.w3.org/2000/svg">
<g clip-path="url(#clip0_105_3)" filter="url(#filter0_d_105_3)">
<path d="M310 82.5V83.5H320L310 82.5Z" fill="#FFEEE6"/>
<path d="M314 82.5V83.5H317L314 82.5Z" fill="#FF9D6C"/>
<path d="M292 83.5V84.5L300 86.5V83.5H292Z" fill="#FFEEE6"/>
<path d="M300 83.5V86.5H301L300 83.5Z" fill="#FF9D6C"/>
<path d="M301 83.5V86.5L285 85.5H284L285 88.5L280 86.5V88.5H279V86.5H278C277.197 91.3173 260.255 93.4808 261 90.5L222 104.833L208 107.5H207C205.468 110.174 204.051 111.546 201 110.5H200L201 113.5L197 112.5H196C193.093 117.621 185.703 120.227 180 120.5C180 124.518 156.707 134.838 154 132.5H153L154 135.5L152 133.5H151L152 136.5L150 134.5H149L150 137.5L133 141.5V142.5L137 143.5V144.5H132L133 146.5L130 145.5L124 150.667L100 161.5L101 163.5L98.0001 162.5C98.0001 165.479 94.4635 165.995 92.0001 167.5C87.7682 170.086 73.7702 180.756 70.0001 177.5H69.0001L70.0001 180.5L68.0001 178.5H67.0001L68.0001 181.5H63.0001H62.0001L63.0001 184.5L45.0001 193.5L46.0001 191.5H45.0001V194.5L35.0001 197.5C33.2237 203.154 23.8106 205.585 19.0001 208.5L17.0001 205.5L19.0001 209.5C14.393 210.855 6.61083 213.919 4.60345 218.685C2.35871 224.015 4.00005 232.777 4.00005 238.5C4.00005 255.94 7.21122 274.203 4.00005 291.5C148.702 291.5 293.359 290.5 438 290.5H573C595.571 290.5 620.799 287.378 643 291.5V233.5L641.972 211.137L630 204.392L597 188.5L598 185.5H597L595 187.5L596 184.5H595L593 186.5L594 183.5H593C590.893 186.309 563.336 172.157 564 169.5L549 164.5L550 161.5H549C544.623 163.026 539.985 158.957 536 157.165C525.811 152.585 503.619 146.402 498 136.5H497L495 138.5L496 135.5H495L493 137.5L494 134.5H493C487.118 136.551 469.032 127.843 466 122.5H465C463.12 125.006 454.403 120.888 455 118.5C448.894 118.503 443.566 115.176 438 112.949C427.268 108.656 410.193 106.785 402 98.5H401C401 99.9392 376.663 95.6392 375 90.5H374L365 91.5L366 88.5H365L359 90.5L360 87.5H359L354 86.5H332V83.5L319 85.5L331 84.5V86.5H302V84.5L313 85.5L301 83.5Z" fill="#780116"/>
<path d="M318 83.5L317 86.5H331V84.5L318 83.5ZM332 83.5L333 84.5L332 83.5Z" fill="#FF9D6C"/>
<path d="M332 86.4999L341 84.4999C337.475 83.0246 334.144 83.1927 332 86.4999ZM282 84.4999V85.4999H289V86.4999H285V87.4999H290L282 84.4999Z" fill="#FFEEE6"/>
<path d="M289 84.5L295 87.5L289 84.5Z" fill="#FF9D6C"/>
<path d="M294 84.5L295 85.5L294 84.5Z" fill="#FF671D"/>
<path d="M302 84.5V86.5H314L302 84.5Z" fill="#FF9D6C"/>
<path d="M338.333 85.1667L338.667 85.8333L338.333 85.1667Z" fill="#FF0B01"/>
<path d="M338 87.5H344V84.5L338 87.5Z" fill="#FF9D6C"/>
<path d="M344 87.5H345L351 85.5C348.121 83.8409 344.772 83.8983 344 87.5ZM276 85.5V86.5L281 88.5H282L284 87.5L276 85.5Z" fill="#FFEEE6"/>
<path d="M281 85.5V86.5H284L281 85.5Z" fill="#FF9D6C"/>
<path d="M285 85.5V86.5H289L285 85.5ZM294 85.5L295 86.5L294 85.5ZM345 87.5H349H345Z" fill="#FF0B01"/>
<path d="M348 85.5L349 86.5L348 85.5Z" fill="#FF671D"/>
<path d="M349 85.5L350 88.5H351L352 85.5H349Z" fill="#FF9D6C"/>
<path d="M351 88.5H352L359 86.5V87.5L356 89.5L361 86.5C357.02 85.5553 353.433 84.7474 351 88.5ZM272 86.5V87.5L274 89.5H278L272 86.5Z" fill="#FFEEE6"/>
<path d="M275 86.5V87.5H278L275 86.5Z" fill="#FF9D6C"/>
<path d="M279.333 87.1667L279.667 87.8333L279.333 87.1667Z" fill="#FF0B01"/>
<path d="M346.667 86.8333L347.333 87.1667L346.667 86.8333ZM349.333 87.1667L349.667 87.8333L349.333 87.1667Z" fill="#FFEEE6"/>
<path d="M352.333 87.1667L352.667 87.8333L352.333 87.1667ZM354.333 87.1667L354.667 87.8333L354.333 87.1667Z" fill="#FF0B01"/>
<path d="M355 89.5H356L359 87.5C356.588 86.1452 355.568 86.8511 355 89.5ZM361 86.5L359 90.5C361.668 89.7528 362.595 88.9192 361 86.5Z" fill="#FF9D6C"/>
<path d="M362 86.5L363 87.5L362 86.5ZM245 93.5V94.5L247 96.5L254 91.5H257L256 93.5L261 92.5L264 91.5L262 90.5V89.5L265 91.5H266H267L266 87.5L245 93.5Z" fill="#FFEEE6"/>
<path d="M266 87.5L269 91.5L266 87.5Z" fill="#FF9D6C"/>
<path d="M267 87.5V88.5L272 90.5L267 87.5Z" fill="#FFEEE6"/>
<path d="M271 87.5L274 90.5L271 87.5Z" fill="#FF9D6C"/>
<path d="M274 87.5L275 88.5L274 87.5Z" fill="#FF0B01"/>
<path d="M282 87.5V88.5H285L282 87.5ZM348 87.5L349 88.5L348 87.5Z" fill="#FF9D6C"/>
<path d="M361 87.5L362 88.5L361 87.5Z" fill="#FF671D"/>
<path d="M362 90.5L368 88.5L367 91.5H368L373 89.5V90.5L371 91.5L374 92.5C374 89.2072 375.473 91.8708 376 93.5L380 91.5V94.5H381L384 92.5L386 95.5L390 94.5L388 95.5V96.5L396 98.5V95.5L398 98.5L399 94.5C391.316 93.5281 366.689 83.2953 362 90.5Z" fill="#FFEEE6"/>
<path d="M268 88.5L269 89.5L268 88.5Z" fill="#FF671D"/>
<path d="M270 88.5L271 89.5L270 88.5Z" fill="#FF0B01"/>
<path d="M365 91.5L368 88.5L365 91.5ZM262.667 89.8333L263.333 90.1667L262.667 89.8333Z" fill="#FF9D6C"/>
<path d="M264 89.5V91.5L266 89.5H264ZM268 89.5L269 90.5L268 89.5ZM368 89.5V91.5L370 89.5H368Z" fill="#FF0B01"/>
<path d="M372 92.5L373 90.5C370.628 89.2609 369.584 91.1428 372 92.5Z" fill="#FF9D6C"/>
<path d="M261 90.5L262 91.5L261 90.5Z" fill="#FF0B01"/>
<path d="M369 90.5L370 91.5L369 90.5Z" fill="#FFEEE6"/>
<path d="M373 90.5L374 91.5L373 90.5Z" fill="#FF0B01"/>
<path d="M375 90.5V93.5H376L375 90.5ZM254 91.5V94.5C256.006 93.3734 256.006 92.6266 254 91.5Z" fill="#FF9D6C"/>
<path d="M256 91.5L257 92.5L256 91.5ZM260 91.5L261 92.5L260 91.5Z" fill="#FF0B01"/>
<path d="M262.667 91.8333L263.333 92.1667L262.667 91.8333Z" fill="#FF9D6C"/>
<path d="M378 91.5L379 92.5L378 91.5Z" fill="#FF671D"/>
<path d="M379 91.5L378 94.5L379 91.5ZM250.667 92.8333L251.333 93.1667L250.667 92.8333Z" fill="#FF9D6C"/>
<path d="M252 92.5L253 93.5L252 92.5ZM378 92.5L379 93.5L378 92.5Z" fill="#FF0B01"/>
<path d="M382 92.5L383 93.5L382 92.5Z" fill="#FF671D"/>
<path d="M383 92.5L382 95.5L383 92.5Z" fill="#FF9D6C"/>
<path d="M236 94.5L239 98.5L238 95.5L241 96.5V94.5H243V97.5L246 96.5C242.953 93.3117 240.111 93.9931 236 94.5Z" fill="#FFEEE6"/>
<path d="M244.333 94.1667L244.667 94.8333L244.333 94.1667ZM246 93.5V96.5H247L246 93.5Z" fill="#FF9D6C"/>
<path d="M248 93.5L249 94.5L248 93.5Z" fill="#FF671D"/>
<path d="M249 93.5L250 94.5L249 93.5ZM382 93.5L383 94.5L382 93.5ZM385 93.5L386 94.5L385 93.5Z" fill="#FF0B01"/>
<path d="M386 93.5V96.5L389 95.5V94.5L386 93.5ZM241 94.5L242 97.5L239 95.5H238L243 98.5L241 94.5Z" fill="#FF9D6C"/>
<path d="M242 94.5L243 95.5L242 94.5ZM245.667 94.8333L246.333 95.1667L245.667 94.8333Z" fill="#FF671D"/>
<path d="M251 94.5L252 95.5L251 94.5Z" fill="#FF9D6C"/>
<path d="M389 94.5L390 95.5L389 94.5Z" fill="#FF671D"/>
<path d="M393 94.5V96.5H395V94.5H393Z" fill="#FF9D6C"/>
<path d="M234 95.5L235 96.5L234 95.5Z" fill="#FFEEE6"/>
<path d="M235 95.5L237 97.5L235 95.5ZM243 95.5L244 96.5L243 95.5Z" fill="#FF0B01"/>
<path d="M248 95.5L249 96.5L248 95.5Z" fill="#FF9D6C"/>
<path d="M391 95.5L392 96.5L391 95.5Z" fill="#FF0B01"/>
<path d="M392 95.5L393 96.5L392 95.5Z" fill="#FF671D"/>
<path d="M396 95.5L395 97.5L396 95.5Z" fill="#FF0B01"/>
<path d="M399 95.5L400 96.5L399 95.5Z" fill="#FF671D"/>
<path d="M400 95.5L401 96.5L400 95.5Z" fill="#FF0B01"/>
<path d="M401 95.5L400 99.5H401V96.5L404 97.5L403 100.5L407 98.5L406 101.5H407L410 99.5L409 102.5H410L412 103.5C414.288 102.558 414.658 101.937 415 104.5H416L419 102.5L401 95.5ZM231 96.5L227 98.5L230 101.5L229 98.5L233 100.5L231 96.5Z" fill="#FFEEE6"/>
<path d="M232 96.5C233.265 100.277 235.334 100.069 239 99.5V98.5L234 99.5L232 96.5Z" fill="#FF9D6C"/>
<path d="M233.333 97.1667L233.667 97.8333L233.333 97.1667Z" fill="#FF671D"/>
<path d="M234.667 96.8333L235.333 97.1667L234.667 96.8333Z" fill="#FF9D6C"/>
<path d="M239 96.5L240 97.5L239 96.5Z" fill="#FF671D"/>
<path d="M240.667 96.8333L241.333 97.1667L240.667 96.8333Z" fill="#FF0B01"/>
<path d="M244 96.5L245 97.5L244 96.5ZM390 96.5L391 97.5L390 96.5ZM396 96.5L402 100.5V99.5L400 96.5H399H396ZM401 96.5L403 99.5L404 98.5L401 96.5Z" fill="#FF9D6C"/>
<path d="M234 97.5V99.5H236V97.5H234Z" fill="#FFEEE6"/>
<path d="M236 97.5L237 98.5L236 97.5Z" fill="#FF671D"/>
<path d="M393.667 97.8333L394.333 98.1667L393.667 97.8333Z" fill="#FF9D6C"/>
<path d="M398 97.5L399 98.5L398 97.5ZM401 97.5L402 98.5L401 97.5Z" fill="#FF0B01"/>
<path d="M225 98.5L228 102.5L225 98.5Z" fill="#FFEEE6"/>
<path d="M226 98.5L230 102.5V101.5L226 98.5ZM229 98.5L233 101.5V100.5L229 98.5Z" fill="#FF9D6C"/>
<path d="M230 98.5L232 100.5L230 98.5Z" fill="#FF0B01"/>
<path d="M405 98.5L406 99.5L405 98.5Z" fill="#FF671D"/>
<path d="M406 98.5L407 99.5L406 98.5Z" fill="#FF9D6C"/>
<path d="M214 104.5L207 106.5L210 109.5L208 107.5V106.5L211 108.5H212L211 105.5L213 107.5H214L216 106.5H217L216 103.5L218 105.5H219V102.5H220L222 104.5L221 101.5L225 103.5L224 99.5L214 104.5Z" fill="#FFEEE6"/>
<path d="M224 99.5L225 102.5H226L224 99.5ZM230 99.5L231 100.5L230 99.5Z" fill="#FF671D"/>
<path d="M404 99.5L405 100.5L404 99.5Z" fill="#FF0B01"/>
<path d="M405 99.5L403 100.5V101.5L405 99.5Z" fill="#FF9D6C"/>
<path d="M407.333 100.167L407.667 100.833L407.333 100.167Z" fill="#FF0B01"/>
<path d="M408 99.5L409 100.5L408 99.5Z" fill="#FF671D"/>
<path d="M409 99.5L410 100.5L409 99.5ZM224.333 101.167L224.667 101.833L224.333 101.167Z" fill="#FF9D6C"/>
<path d="M228 100.5L229 101.5L228 100.5Z" fill="#FF0B01"/>
<path d="M406 101.5V102.5L412 101.5L409 100.5L406 101.5Z" fill="#FF9D6C"/>
<path d="M410.333 101.167L410.667 101.833L410.333 101.167Z" fill="#FF0B01"/>
<path d="M411 100.5L412 101.5L411 100.5Z" fill="#FF671D"/>
<path d="M221 101.5L222 102.5L221 101.5Z" fill="#FF9D6C"/>
<path d="M222.333 102.167L222.667 102.833L222.333 102.167Z" fill="#FF671D"/>
<path d="M414 101.5L412 103.5V104.5C414.251 104.027 415.118 103.64 414 101.5Z" fill="#FF9D6C"/>
<path d="M219 102.5L220 103.5L219 102.5Z" fill="#FF671D"/>
<path d="M225 102.5V103.5H228L225 102.5Z" fill="#FF9D6C"/>
<path d="M413 102.5L414 103.5L413 102.5ZM416.333 103.167L416.667 103.833L416.333 103.167Z" fill="#FF0B01"/>
<path d="M417 102.5L415 105.5L421 107.5V106.5L418 105.5L419 103.5L417 102.5Z" fill="#FF9D6C"/>
<path d="M419.667 102.833L420.333 103.167L419.667 102.833Z" fill="#FF0B01"/>
<path d="M421 102.5L420 106.5H421L422 103.5L423 107.5H424L426 108.5H427L429 106.5L428 109.5H429L430 105.5L421 102.5Z" fill="#FFEEE6"/>
<path d="M213 103.5L214 104.5L213 103.5Z" fill="#FF0B01"/>
<path d="M216 103.5L217 104.5L216 103.5Z" fill="#FF9D6C"/>
<path d="M217.333 104.167L217.667 104.833L217.333 104.167Z" fill="#FF0B01"/>
<path d="M219 103.5L222 105.5V104.5L219 103.5ZM222 103.5V104.5H225L222 103.5Z" fill="#FF9D6C"/>
<path d="M418.333 104.167L418.667 104.833L418.333 104.167Z" fill="#FFEEE6"/>
<path d="M419.333 104.167L419.667 104.833L419.333 104.167Z" fill="#FF671D"/>
<path d="M421 103.5L422 107.5H423L421 103.5ZM214 104.5L217 107.5V106.5L214 104.5Z" fill="#FF9D6C"/>
<path d="M215.333 105.167L215.667 105.833L215.333 105.167ZM421.333 105.167L421.667 105.833L421.333 105.167Z" fill="#FF0B01"/>
<path d="M426 104.5L427 105.5L426 104.5ZM211 105.5L212 108.5H213V105.5H211ZM217.667 105.833L218.333 106.167L217.667 105.833Z" fill="#FF9D6C"/>
<path d="M424.333 106.167L424.667 106.833L424.333 106.167Z" fill="#FF0B01"/>
<path d="M425 105.5L424 108.5L425 105.5Z" fill="#FF9D6C"/>
<path d="M205 106.5L194 111.5V115.5H195V112.5L197 114.5H198V111.5H199V113.5H200L199 110.5L201 112.5H202L206 110.5H207L205 106.5Z" fill="#FFEEE6"/>
<path d="M206 106.5L207 107.5L206 106.5Z" fill="#FF0B01"/>
<path d="M208.667 106.833L209.333 107.167L208.667 106.833Z" fill="#FF9D6C"/>
<path d="M210.333 107.167L210.667 107.833L210.333 107.167Z" fill="#FF0B01"/>
<path d="M427 106.5L428 107.5L427 106.5Z" fill="#FF671D"/>
<path d="M428 106.5L429 107.5L428 106.5ZM430 106.5V110.5H431L430 106.5Z" fill="#FF9D6C"/>
<path d="M431 106.5V110.5H432L433 107.5V111.5L435 109.5H436V112.5H437L439 110.5L438 113.5H439L440 109.5L431 106.5Z" fill="#FFEEE6"/>
<path d="M206 107.5L207 108.5L206 107.5ZM427.333 108.167L427.667 108.833L427.333 108.167Z" fill="#FF9D6C"/>
<path d="M429.333 108.167L429.667 108.833L429.333 108.167Z" fill="#FF0B01"/>
<path d="M432 107.5V111.5H433L432 107.5Z" fill="#FF9D6C"/>
<path d="M201 108.5L202 109.5L201 108.5Z" fill="#FF0B01"/>
<path d="M204 108.5V111.5H205L204 108.5Z" fill="#FF9D6C"/>
<path d="M205.333 109.167L205.667 109.833L205.333 109.167Z" fill="#FF0B01"/>
<path d="M210 108.5L211 109.5L210 108.5Z" fill="#FF9D6C"/>
<path d="M432 108.5L433 109.5L432 108.5Z" fill="#FF671D"/>
<path d="M436 108.5L437 109.5L436 108.5ZM202 109.5V112.5H203L202 109.5Z" fill="#FF9D6C"/>
<path d="M203 109.5L204 110.5L203 109.5Z" fill="#FF0B01"/>
<path d="M435 109.5V112.5H436L435 109.5ZM199 110.5L200 111.5L199 110.5Z" fill="#FF9D6C"/>
<path d="M203 110.5L204 111.5L203 110.5Z" fill="#FFEEE6"/>
<path d="M437.333 111.167L437.667 111.833L437.333 111.167Z" fill="#FF0B01"/>
<path d="M438 110.5L439 111.5L438 110.5Z" fill="#FF9D6C"/>
<path d="M440 110.5L439 112.5L440 110.5Z" fill="#FF671D"/>
<path d="M441 110.5V112.5H443V110.5H441Z" fill="#FFEEE6"/>
<path d="M198 111.5L199 112.5L198 111.5Z" fill="#FF671D"/>
<path d="M440 111.5V114.5H441L440 111.5ZM443 111.5L444 115.5L443 111.5Z" fill="#FF9D6C"/>
<path d="M443 114.5L447 113.5L443 114.5ZM183 118.5H176V120.5L174 119.5V121.5L172 120.5V122.5C160.745 122.422 146.215 134.731 136 139.5V140.5H139V141.5H137V142.5L141 141.5L139 139.5L143 136.5H144V139.5H145V135.5H146V138.5H147V134.5H148V137.5H149V133.5H150V136.5H151V133.5H152V135.5H153V132.5H154V134.5H155V131.5H156V133.5H157V130.5H158V132.5H159L158 129.5L160 131.5H161L160 128.5L162 130.5H163L162 127.5L166 124.5H167V126.5H168V123.5H169C169.506 126.029 169.494 126.029 170 123.5L173 125.5L172 122.5L177 123.5L176 120.5L180 122.5V121.5L178 119.5L182 118.5L181 121.5L189 118.5V114.5H190V117.5H191L193 112.5L183 118.5Z" fill="#FFEEE6"/>
<path d="M193 112.5L195 114.5L193 112.5Z" fill="#FF0B01"/>
<path d="M195 112.5L196 113.5L195 112.5Z" fill="#FF9D6C"/>
<path d="M198 112.5L199 113.5L198 112.5Z" fill="#FF0B01"/>
<path d="M200 112.5L201 113.5L200 112.5Z" fill="#FF9D6C"/>
<path d="M439 112.5L440 113.5L439 112.5ZM441 112.5L442 113.5L441 112.5Z" fill="#FF0B01"/>
<path d="M193 113.5V116.5H194L193 113.5ZM198 113.5L199 114.5L198 113.5Z" fill="#FF9D6C"/>
<path d="M441 113.5L442 114.5L441 113.5Z" fill="#FFEEE6"/>
<path d="M444 113.5L445 114.5L444 113.5Z" fill="#FF671D"/>
<path d="M445 113.5V114.5L447 117.5H448L445 113.5Z" fill="#FF9D6C"/>
<path d="M447 113.5L448 114.5L447 113.5Z" fill="#FF671D"/>
<path d="M448 113.5L449 114.5L448 113.5Z" fill="#FF0B01"/>
<path d="M449 113.5L448 117.5L452 118.5L451 116.5L453 119.5H454V116.5H455L456 120.5L460 118.5V122.5H461L463 119.5L462 122.5H463L464 120.5C465.015 122.834 465.421 121.41 466 119.5L457 118.5L449 113.5Z" fill="#FFEEE6"/>
<path d="M189 114.5V118.5H190L189 114.5Z" fill="#FF9D6C"/>
<path d="M191 114.5L192 115.5L191 114.5Z" fill="#FF671D"/>
<path d="M192 114.5L191 116.5L192 114.5Z" fill="#FF0B01"/>
<path d="M195 114.5L196 115.5L195 114.5Z" fill="#FF9D6C"/>
<path d="M444 114.5L445 115.5L444 114.5Z" fill="#FF0B01"/>
<path d="M445 114.5L447 116.5L445 114.5Z" fill="#FFEEE6"/>
<path d="M446 114.5L447 115.5L446 114.5Z" fill="#FF0B01"/>
<path d="M192 115.5L193 116.5L192 115.5Z" fill="#FFEEE6"/>
<path d="M445 115.5L446 116.5L445 115.5Z" fill="#FF9D6C"/>
<path d="M449 115.5L450 116.5L449 115.5Z" fill="#FF671D"/>
<path d="M450 115.5L451 116.5L450 115.5ZM186 116.5L187 117.5L186 116.5ZM191 116.5L192 117.5L191 116.5Z" fill="#FF9D6C"/>
<path d="M451 116.5L452 117.5L451 116.5Z" fill="#FF0B01"/>
<path d="M452 116.5V119.5H453L452 116.5Z" fill="#FF9D6C"/>
<path d="M454 116.5L455 117.5L454 116.5Z" fill="#FF671D"/>
<path d="M182 117.5L183 118.5L182 117.5Z" fill="#FF0B01"/>
<path d="M185 117.5L186 118.5L185 117.5Z" fill="#FF671D"/>
<path d="M449 117.5L450 118.5L449 117.5ZM454 117.5L455 118.5L454 117.5ZM457 117.5L458 118.5L457 117.5Z" fill="#FF9D6C"/>
<path d="M177 118.5L178 119.5L177 118.5Z" fill="#FF671D"/>
<path d="M180.333 119.167L180.667 119.833L180.333 119.167Z" fill="#FF9D6C"/>
<path d="M181.333 119.167L181.667 119.833L181.333 119.167ZM183 118.5L184 119.5L183 118.5Z" fill="#FF0B01"/>
<path d="M186 118.5L187 119.5L186 118.5ZM454 120.5L457 118.5L454 120.5ZM458 118.5L456 120.5V121.5L460 118.5H458Z" fill="#FF9D6C"/>
<path d="M175 119.5L176 120.5L175 119.5Z" fill="#FF0B01"/>
<path d="M178.333 120.167L178.667 120.833L178.333 120.167ZM184 119.5L185 120.5L184 119.5Z" fill="#FF9D6C"/>
<path d="M457 119.5L458 120.5L457 119.5Z" fill="#FF0B01"/>
<path d="M461 119.5L465 124.5L462 122.5L463 119.5H461Z" fill="#FF9D6C"/>
<path d="M464 119.5L465 120.5L464 119.5Z" fill="#FF0B01"/>
<path d="M173 120.5L174 121.5L173 120.5ZM176 120.5L179 123.5V122.5L176 120.5Z" fill="#FF9D6C"/>
<path d="M179 120.5L180 121.5L179 120.5Z" fill="#FF0B01"/>
<path d="M182 120.5L183 121.5L182 120.5Z" fill="#FF9D6C"/>
<path d="M458 120.5L459 121.5L458 120.5ZM460 120.5L461 121.5L460 120.5Z" fill="#FF0B01"/>
<path d="M463 120.5L464 121.5L463 120.5Z" fill="#FF671D"/>
<path d="M466 120.5L465 122.5H467L466 120.5Z" fill="#FF9D6C"/>
<path d="M467 120.5L466 124.5H467V122.5H468V125.5H469H472L473 122.5L467 120.5Z" fill="#FFEEE6"/>
<path d="M171 121.5L172 122.5L171 121.5ZM174 121.5L173 124.5V125.5L177 124.5L174 121.5Z" fill="#FF9D6C"/>
<path d="M177 121.5L178 122.5L177 121.5Z" fill="#FF0B01"/>
<path d="M180 121.5L181 122.5L180 121.5ZM459 121.5L460 122.5L459 121.5ZM172 122.5L173 123.5L172 122.5Z" fill="#FF9D6C"/>
<path d="M173.333 123.167L173.667 123.833L173.333 123.167ZM175 122.5L176 123.5L175 122.5ZM464 122.5L465 123.5L464 122.5ZM467.333 123.167L467.667 123.833L467.333 123.167Z" fill="#FF0B01"/>
<path d="M168 123.5L169 124.5L168 123.5Z" fill="#FF671D"/>
<path d="M170 123.5V126.5H169V124.5H168V127.5H167V124.5H166V128.5H165V126.5H164L163 130.5L173 126.5L170 123.5Z" fill="#FF9D6C"/>
<path d="M174 123.5L175 124.5L174 123.5Z" fill="#FFEEE6"/>
<path d="M469.333 124.167L469.667 124.833L469.333 124.167Z" fill="#FF0B01"/>
<path d="M470 123.5L471 124.5L470 123.5Z" fill="#FF671D"/>
<path d="M472 123.5V126.5H471L468 125.5V126.5L479 130.5L481 126.5L475 128.5V124.5L472 127.5V123.5Z" fill="#FF9D6C"/>
<path d="M473 123.5L474 124.5L473 123.5Z" fill="#FF0B01"/>
<path d="M474 123.5L475 124.5L474 123.5Z" fill="#FFEEE6"/>
<path d="M171 124.5L172 125.5L171 124.5Z" fill="#FF0B01"/>
<path d="M466.667 124.833L467.333 125.167L466.667 124.833Z" fill="#FF9D6C"/>
<path d="M473 124.5L474 125.5L473 124.5Z" fill="#FFEEE6"/>
<path d="M475 124.5L476 125.5L475 124.5Z" fill="#FF0B01"/>
<path d="M476 124.5L475 128.5H476V126.5H477V129.5H478L480 126.5L476 124.5Z" fill="#FFEEE6"/>
<path d="M169 125.5L170 126.5L169 125.5ZM471 125.5L472 126.5L471 125.5ZM473.333 126.167L473.667 126.833L473.333 126.167ZM167 126.5L168 127.5L167 126.5Z" fill="#FF0B01"/>
<path d="M472 126.5L473 127.5L472 126.5Z" fill="#FFEEE6"/>
<path d="M476.333 127.167L476.667 127.833L476.333 127.167Z" fill="#FF671D"/>
<path d="M481 126.5L479 130.5H480L482 128.5L481 131.5H482L484 129.5L483 132.5H484H485L484 130.5H485L486 133.5H487L488 129.5L481 126.5Z" fill="#FFEEE6"/>
<path d="M162 127.5L163 128.5L162 127.5Z" fill="#FF9D6C"/>
<path d="M163.333 128.167L163.667 128.833L163.333 128.167ZM165 127.5L166 128.5L165 127.5Z" fill="#FF0B01"/>
<path d="M478 127.5L479 128.5L478 127.5Z" fill="#FF671D"/>
<path d="M160 128.5L161 129.5L160 128.5Z" fill="#FF9D6C"/>
<path d="M161.333 129.167L161.667 129.833L161.333 129.167ZM480.333 129.167L480.667 129.833L480.333 129.167Z" fill="#FF0B01"/>
<path d="M481 128.5L482 129.5L481 128.5ZM158 129.5L159 130.5L158 129.5Z" fill="#FF9D6C"/>
<path d="M159.333 130.167L159.667 130.833L159.333 130.167ZM482.333 130.167L482.667 130.833L482.333 130.167Z" fill="#FF0B01"/>
<path d="M483 129.5L484 130.5L483 129.5ZM486 129.5L487 130.5L486 129.5Z" fill="#FF9D6C"/>
<path d="M157.333 131.167L157.667 131.833L157.333 131.167Z" fill="#FF0B01"/>
<path d="M161 130.5L162 131.5L161 130.5ZM480 130.5L481 131.5L480 130.5Z" fill="#FF9D6C"/>
<path d="M484 130.5L485 131.5L484 130.5Z" fill="#FF0B01"/>
<path d="M485 130.5V133.5H486L485 130.5Z" fill="#FF9D6C"/>
<path d="M487 130.5L488 131.5L487 130.5Z" fill="#FF0B01"/>
<path d="M488 130.5L487 134.5H488V130.5Z" fill="#FF9D6C"/>
<path d="M489 130.5L488 132.5H490L489 130.5Z" fill="#FFEEE6"/>
<path d="M155 131.5L156 132.5L155 131.5Z" fill="#FF671D"/>
<path d="M159 131.5L160 132.5L159 131.5ZM482 131.5L483 132.5L482 131.5ZM490 131.5L489 135.5H490V131.5Z" fill="#FF9D6C"/>
<path d="M491 131.5L490 135.5H491V133.5H492V136.5H493V134.5H494V137.5H495V134.5H496V138.5H497L499 136.5L498 138.5L501 137.5V140.5L505 139.5L504 142.5H505L506 139.5H507C507.725 143.72 510.223 144.898 514 146.5L515 143.5L518 144.5V143.5L505 139.5L501 137.5L491 131.5Z" fill="#FFEEE6"/>
<path d="M155 132.5L156 133.5L155 132.5Z" fill="#FF0B01"/>
<path d="M157 132.5L158 133.5L157 132.5Z" fill="#FF9D6C"/>
<path d="M488 132.5L489 133.5L488 132.5ZM149 133.5L150 134.5L149 133.5Z" fill="#FF0B01"/>
<path d="M155 133.5L156 134.5L155 133.5Z" fill="#FF9D6C"/>
<path d="M488 133.5L489 134.5L488 133.5Z" fill="#FFEEE6"/>
<path d="M491 133.5L492 134.5L491 133.5Z" fill="#FF671D"/>
<path d="M147 134.5L148 135.5L147 134.5Z" fill="#FF0B01"/>
<path d="M153 134.5L154 135.5L153 134.5Z" fill="#FF9D6C"/>
<path d="M491 134.5L492 135.5L491 134.5ZM495 134.5L496 135.5L495 134.5ZM145 135.5L146 136.5L145 135.5Z" fill="#FF0B01"/>
<path d="M147 135.5V138.5H148L147 135.5ZM151 135.5L152 136.5L151 135.5ZM491 135.5L492 136.5L491 135.5Z" fill="#FF9D6C"/>
<path d="M143 136.5L144 137.5L143 136.5Z" fill="#FF671D"/>
<path d="M145 136.5V139.5H146L145 136.5ZM149 136.5L150 137.5L149 136.5ZM493 136.5L494 137.5L493 136.5ZM498 136.5L499 137.5L498 136.5Z" fill="#FF9D6C"/>
<path d="M501 136.5L502 137.5L501 136.5Z" fill="#FF0B01"/>
<path d="M143 137.5V140.5H144L143 137.5ZM495 137.5L496 138.5L495 137.5Z" fill="#FF9D6C"/>
<path d="M499.333 138.167L499.667 138.833L499.333 138.167Z" fill="#FF0B01"/>
<path d="M500 137.5L501 138.5L500 137.5ZM502.333 138.167L502.667 138.833L502.333 138.167ZM141 138.5V141.5H142L141 138.5Z" fill="#FF9D6C"/>
<path d="M142 138.5L143 139.5L142 138.5Z" fill="#FF0B01"/>
<path d="M498 138.5L499 139.5L498 138.5Z" fill="#FF9D6C"/>
<path d="M501 138.5L502 139.5L501 138.5Z" fill="#FF0B01"/>
<path d="M505 138.5L506 139.5L505 138.5ZM139 139.5L140 140.5L139 139.5Z" fill="#FF9D6C"/>
<path d="M140 139.5L141 140.5L140 139.5Z" fill="#FF0B01"/>
<path d="M142 139.5L143 140.5L142 139.5Z" fill="#FFEEE6"/>
<path d="M500 139.5L501 140.5L500 139.5Z" fill="#FF9D6C"/>
<path d="M503.333 140.167L503.667 140.833L503.333 140.167Z" fill="#FF0B01"/>
<path d="M504 139.5L505 140.5L504 139.5ZM506 139.5V143.5H507L506 139.5Z" fill="#FF9D6C"/>
<path d="M134 140.5L136 142.5L134 140.5Z" fill="#FFEEE6"/>
<path d="M135 140.5L136 141.5L135 140.5Z" fill="#FF671D"/>
<path d="M136 140.5V142.5L138 140.5H136Z" fill="#FF9D6C"/>
<path d="M138 140.5L139 141.5L138 140.5Z" fill="#FF0B01"/>
<path d="M502 140.5L503 141.5L502 140.5Z" fill="#FF9D6C"/>
<path d="M505 140.5L506 141.5L505 140.5Z" fill="#FF671D"/>
<path d="M130 141.5V143.5L128 142.5V144.5L126 143.5V145.5L124 144.5C124.209 147.358 124.174 148.5 127 148.5V147.5L125 148.5L126 145.5L129 147.5L128 144.5L130 143.5L132 144.5L133 142.5V145.5L136 144.5L130 141.5Z" fill="#FFEEE6"/>
<path d="M131 141.5L132 142.5L131 141.5ZM134 141.5L135 142.5L134 141.5ZM139 141.5L140 142.5L139 141.5Z" fill="#FF9D6C"/>
<path d="M505 141.5L506 142.5L505 141.5Z" fill="#FF0B01"/>
<path d="M508 141.5L509 142.5L508 141.5ZM129 142.5L130 143.5L129 142.5ZM132.333 143.167L132.667 143.833L132.333 143.167ZM137 142.5L138 143.5L137 142.5Z" fill="#FF9D6C"/>
<path d="M509 142.5L510 143.5L509 142.5Z" fill="#FF0B01"/>
<path d="M510 142.5L511 143.5L510 142.5ZM127 143.5L128 144.5L127 143.5ZM130.333 144.167L130.667 144.833L130.333 144.167Z" fill="#FF9D6C"/>
<path d="M133 143.5L134 144.5L133 143.5Z" fill="#FF0B01"/>
<path d="M136 143.5L137 144.5L136 143.5ZM508 143.5L509 144.5L508 143.5Z" fill="#FF9D6C"/>
<path d="M511 143.5L512 144.5L511 143.5Z" fill="#FF0B01"/>
<path d="M512 143.5L513 144.5L512 143.5Z" fill="#FF9D6C"/>
<path d="M515 143.5L514 146.5L515 143.5ZM125 144.5L126 145.5L125 144.5Z" fill="#FF0B01"/>
<path d="M128 144.5L131 147.5V146.5L128 144.5Z" fill="#FF9D6C"/>
<path d="M131 144.5L132 145.5L131 144.5Z" fill="#FF0B01"/>
<path d="M134 144.5L135 145.5L134 144.5ZM510 144.5L511 145.5L510 144.5Z" fill="#FF9D6C"/>
<path d="M513 144.5L514 145.5L513 144.5Z" fill="#FF0B01"/>
<path d="M516 144.5L514 147.5L532 155.5V154.5L524 151.5L525 148.5H524L522 150.5L523 146.5H522L520 149.5L521 146.5H520L518 148.5L519 146.5L516 147.5L518 144.5H516Z" fill="#FF9D6C"/>
<path d="M518.667 144.833L519.333 145.167L518.667 144.833Z" fill="#FF0B01"/>
<path d="M520 144.5L518 148.5L521 146.5L520 149.5H521L523 145.5L520 144.5Z" fill="#FFEEE6"/>
<path d="M123 145.5V150.5H122V148.5H121L122 151.5L117 153.5L118 150.5L113 151.5L114 155.5H113L112 152.5H111L112 156.5L109 157.5V158.5L126 150.5L123 145.5ZM126 145.5L129 148.5V147.5L126 145.5Z" fill="#FF9D6C"/>
<path d="M129 145.5L130 146.5L129 145.5Z" fill="#FF0B01"/>
<path d="M131 145.5L132 146.5L131 145.5Z" fill="#FFEEE6"/>
<path d="M132 145.5L133 146.5L132 145.5ZM512 145.5L513 146.5L512 145.5Z" fill="#FF9D6C"/>
<path d="M517 145.5L516 147.5L517 145.5Z" fill="#FFEEE6"/>
<path d="M518 145.5L519 146.5L518 145.5Z" fill="#FF671D"/>
<path d="M521 145.5L522 146.5L521 145.5Z" fill="#FF0B01"/>
<path d="M116 151.5L119 152.5H120L119 148.5L122 149.5C123.792 144.856 117.104 149.287 116 151.5Z" fill="#FFEEE6"/>
<path d="M125 146.5L126 147.5L125 146.5ZM127 146.5L128 147.5L127 146.5ZM517 146.5L518 147.5L517 146.5Z" fill="#FF0B01"/>
<path d="M523 146.5L522 150.5H523L524 147.5L527 148.5L526 152.5H527L529 150.5L528 153.5H529L531 151.5L530 154.5H531L532 150.5H529L523 146.5Z" fill="#FFEEE6"/>
<path d="M121 147.5L122 148.5L121 147.5ZM125 147.5L126 148.5L125 147.5Z" fill="#FF671D"/>
<path d="M519 147.5L520 148.5L519 147.5Z" fill="#FF0B01"/>
<path d="M524 147.5L525 148.5L524 147.5Z" fill="#FF671D"/>
<path d="M119.333 149.167L119.667 149.833L119.333 149.167Z" fill="#FF9D6C"/>
<path d="M124 148.5L125 149.5L124 148.5Z" fill="#FF0B01"/>
<path d="M126 148.5L127 149.5L126 148.5Z" fill="#FF9D6C"/>
<path d="M521 148.5L522 149.5L521 148.5Z" fill="#FF0B01"/>
<path d="M526.333 149.167L526.667 149.833L526.333 149.167Z" fill="#FF9D6C"/>
<path d="M120.333 150.167L120.667 150.833L120.333 150.167ZM122 149.5L123 150.5L122 149.5ZM523 149.5L524 150.5L523 149.5ZM525 149.5L526 150.5L525 149.5Z" fill="#FF0B01"/>
<path d="M529 149.5L530 150.5L529 149.5Z" fill="#FF671D"/>
<path d="M118.333 151.167L118.667 151.833L118.333 151.167Z" fill="#FF0B01"/>
<path d="M121 150.5L122 151.5L121 150.5ZM524 150.5L525 151.5L524 150.5Z" fill="#FFEEE6"/>
<path d="M525 150.5L526 151.5L525 150.5Z" fill="#FF671D"/>
<path d="M527 150.5L528 151.5L527 150.5Z" fill="#FF0B01"/>
<path d="M528 150.5L529 151.5L528 150.5Z" fill="#FF9D6C"/>
<path d="M112 151.5L113 155.5H114L112 151.5ZM115 151.5V154.5H116L115 151.5ZM117.333 152.167L117.667 152.833L117.333 152.167Z" fill="#FFEEE6"/>
<path d="M527 151.5L528 152.5L527 151.5Z" fill="#FF671D"/>
<path d="M529.333 152.167L529.667 152.833L529.333 152.167Z" fill="#FF0B01"/>
<path d="M530 151.5L531 152.5L530 151.5Z" fill="#FF9D6C"/>
<path d="M532 151.5L531 153.5L532 151.5Z" fill="#FF0B01"/>
<path d="M533 151.5L532 155.5L534 153.5H535L537 154.5L535 155.5V156.5L539 155.5L538 158.5H539L541 156.5L540 159.5H541L543 157.5L542 160.5H543V158.5H544V161.5H545V159.5H546V162.5H547V160.5H548V163.5H549V161.5H550V164.5H551V161.5H552V165.5H553V163.5H554V166.5H555V164.5H556L563 170.5L565 167.5V171.5H566V168.5H567V172.5H568V170.5H569V173.5H570V171.5H571V174.5H572V171.5H573V175.5H574V173.5H575V176.5H576V174.5H577V177.5H578C579.39 174.72 582.482 177.572 582 179.5L585 178.5L584 180.5L587 179.5L586 182.5H587V180.5H588V183.5H589V181.5H590V184.5H591V182.5H592V185.5H593V183.5H594V186.5H595V184.5H596V187.5H597V185.5H598V188.5H599V183.5C584.901 179.124 570.984 164.798 556 164.5V162.5L554 163.5L549 160.5L533 151.5ZM109 154.5H112L111 152.5L109 154.5Z" fill="#FFEEE6"/>
<path d="M532 152.5L533 153.5L532 152.5ZM535 152.5L536 153.5L535 152.5Z" fill="#FF9D6C"/>
<path d="M531 153.5L532 154.5L531 153.5Z" fill="#FF671D"/>
<path d="M534 153.5L533 156.5L534 153.5Z" fill="#FF9D6C"/>
<path d="M107 154.5L108 158.5H109L107 154.5Z" fill="#FFEEE6"/>
<path d="M108.667 154.833L109.333 155.167L108.667 154.833Z" fill="#FF0B01"/>
<path d="M110 154.5L111 155.5L110 154.5Z" fill="#FF9D6C"/>
<path d="M111 154.5L112 155.5L111 154.5ZM535 154.5L536 155.5L535 154.5Z" fill="#FF0B01"/>
<path d="M536 154.5L537 155.5L536 154.5Z" fill="#FF9D6C"/>
<path d="M105 155.5L107 157.5L105 155.5Z" fill="#FFEEE6"/>
<path d="M106 155.5L107 156.5L106 155.5Z" fill="#FF0B01"/>
<path d="M107 155.5V159.5H108L107 155.5Z" fill="#FF9D6C"/>
<path d="M109 155.5L110 156.5L109 155.5Z" fill="#FF671D"/>
<path d="M110.667 155.833L111.333 156.167L110.667 155.833Z" fill="#FFEEE6"/>
<path d="M537.333 156.167L537.667 156.833L537.333 156.167Z" fill="#FF0B01"/>
<path d="M538 155.5L539 156.5L538 155.5Z" fill="#FF9D6C"/>
<path d="M101 162.5H102L105 158.5C101.708 156.762 101.235 159.532 101 162.5Z" fill="#FFEEE6"/>
<path d="M104 156.5L105 157.5L104 156.5Z" fill="#FF0B01"/>
<path d="M105 156.5V160.5H106L105 156.5Z" fill="#FF9D6C"/>
<path d="M109 156.5L110 157.5L109 156.5Z" fill="#FF0B01"/>
<path d="M535.667 156.833L536.333 157.167L535.667 156.833Z" fill="#FF9D6C"/>
<path d="M539.333 157.167L539.667 157.833L539.333 157.167Z" fill="#FF0B01"/>
<path d="M540 156.5L541 157.5L540 156.5Z" fill="#FF9D6C"/>
<path d="M103 157.5L104 158.5L103 157.5Z" fill="#FF671D"/>
<path d="M106 157.5L107 158.5L106 157.5ZM541.333 158.167L541.667 158.833L541.333 158.167Z" fill="#FF0B01"/>
<path d="M542 157.5L543 158.5L542 157.5ZM100 158.5L101 159.5L100 158.5ZM103 158.5L102 162.5H103V158.5Z" fill="#FF9D6C"/>
<path d="M104 158.5L105 159.5L104 158.5Z" fill="#FF0B01"/>
<path d="M106 158.5L107 159.5L106 158.5Z" fill="#FFEEE6"/>
<path d="M539 158.5L540 159.5L539 158.5Z" fill="#FF9D6C"/>
<path d="M543 158.5L544 159.5L543 158.5Z" fill="#FF671D"/>
<path d="M96 161.5L99 163.5H100V159.5L96 161.5Z" fill="#FFEEE6"/>
<path d="M100 159.5L101 160.5L100 159.5ZM102.333 160.167L102.667 160.833L102.333 160.167Z" fill="#FF0B01"/>
<path d="M104 159.5L105 160.5L104 159.5Z" fill="#FFEEE6"/>
<path d="M541 159.5L542 160.5L541 159.5Z" fill="#FF9D6C"/>
<path d="M543 159.5L544 160.5L543 159.5Z" fill="#FF0B01"/>
<path d="M545 159.5L546 160.5L545 159.5Z" fill="#FF671D"/>
<path d="M549 159.5L550 160.5L549 159.5ZM100 160.5L101 161.5L100 160.5ZM543 160.5L544 161.5L543 160.5Z" fill="#FF9D6C"/>
<path d="M545 160.5L546 161.5L545 160.5Z" fill="#FF0B01"/>
<path d="M547 160.5L548 161.5L547 160.5Z" fill="#FF671D"/>
<path d="M94 161.5L92 162.5L91 165.5L80 168.5L82 172.5H83L82 169.5L87 170.5L86 167.5C88.9533 168.781 90.0845 168.731 91 165.5H92V167.5H93V164.5H94H98L94 161.5Z" fill="#FFEEE6"/>
<path d="M95 161.5L96 162.5L95 161.5Z" fill="#FF0B01"/>
<path d="M96.3333 162.167L96.6667 162.833L96.3333 162.167ZM98 161.5L99 162.5L98 161.5ZM545 161.5L546 162.5L545 161.5Z" fill="#FF9D6C"/>
<path d="M547 161.5L548 162.5L547 161.5Z" fill="#FF0B01"/>
<path d="M551 161.5L552 162.5L551 161.5Z" fill="#FF671D"/>
<path d="M93 162.5L94 163.5L93 162.5ZM97 162.5L98 163.5L97 162.5Z" fill="#FF0B01"/>
<path d="M100 162.5L101 163.5L100 162.5ZM547 162.5L548 163.5L547 162.5ZM551 162.5V165.5H552L551 162.5ZM554 162.5L555 163.5L554 162.5Z" fill="#FF9D6C"/>
<path d="M92 163.5L93 164.5L92 163.5Z" fill="#FF671D"/>
<path d="M94 163.5L95 164.5L94 163.5Z" fill="#FF9D6C"/>
<path d="M95 163.5L96 164.5L95 163.5Z" fill="#FF0B01"/>
<path d="M98 163.5L99 164.5L98 163.5ZM549 163.5L550 164.5L549 163.5ZM553 163.5V166.5H554L553 163.5ZM556 163.5L557 164.5L556 163.5ZM90 164.5L91 165.5L90 164.5Z" fill="#FF9D6C"/>
<path d="M93 164.5L94 165.5L93 164.5Z" fill="#FF671D"/>
<path d="M555 164.5V167.5H556L555 164.5ZM91 165.5V168.5H92L91 165.5Z" fill="#FF9D6C"/>
<path d="M93 165.5L94 166.5L93 165.5Z" fill="#FF0B01"/>
<path d="M557 165.5L558 166.5L557 165.5Z" fill="#FF9D6C"/>
<path d="M88.3333 167.167L88.6667 167.833L88.3333 167.167Z" fill="#FF0B01"/>
<path d="M89 166.5L90 167.5L89 166.5ZM559 166.5L560 167.5L559 166.5ZM561.333 167.167L561.667 167.833L561.333 167.167Z" fill="#FF9D6C"/>
<path d="M86 167.5L88 169.5L86 167.5Z" fill="#FF0B01"/>
<path d="M557 167.5L558 168.5L557 167.5Z" fill="#FF9D6C"/>
<path d="M560 167.5L561 168.5L560 167.5ZM564 167.5V170.5H565L564 167.5Z" fill="#FF0B01"/>
<path d="M81 168.5L82 169.5L81 168.5Z" fill="#FF9D6C"/>
<path d="M86 168.5L87 169.5L86 168.5Z" fill="#FF671D"/>
<path d="M89 168.5L90 169.5L89 168.5ZM559 168.5L560 169.5L559 168.5Z" fill="#FF9D6C"/>
<path d="M562 168.5L563 169.5L562 168.5Z" fill="#FF0B01"/>
<path d="M563 168.5L564 169.5L563 168.5Z" fill="#FF9D6C"/>
<path d="M566 168.5V171.5H567L566 168.5Z" fill="#FF0B01"/>
<path d="M78 169.5L75 176.5H76L77 171.5H78L79 174.5H80L81 171.5H80L79 173.5L78 169.5Z" fill="#FFEEE6"/>
<path d="M79 169.5L81 171.5L79 169.5ZM82 169.5L83 170.5L82 169.5Z" fill="#FF9D6C"/>
<path d="M83.3333 170.167L83.6667 170.833L83.3333 170.167Z" fill="#FF0B01"/>
<path d="M83 172.5L87 171.5V170.5L85 169.5L83 172.5Z" fill="#FF9D6C"/>
<path d="M85 169.5L86 170.5L85 169.5Z" fill="#FF671D"/>
<path d="M87 169.5L88 170.5L87 169.5ZM561 169.5L562 170.5L561 169.5ZM570 169.5L571 170.5L570 169.5Z" fill="#FF9D6C"/>
<path d="M78 170.5L79 171.5L78 170.5Z" fill="#FF0B01"/>
<path d="M79.3333 171.167L79.6667 171.833L79.3333 171.167Z" fill="#FF671D"/>
<path d="M81.3333 171.167L81.6667 171.833L81.3333 171.167Z" fill="#FF0B01"/>
<path d="M563.667 170.833L564.333 171.167L563.667 170.833Z" fill="#FF9D6C"/>
<path d="M568 170.5L569 171.5L568 170.5ZM77 171.5L78 172.5L77 171.5Z" fill="#FF0B01"/>
<path d="M565.667 171.833L566.333 172.167L565.667 171.833Z" fill="#FF9D6C"/>
<path d="M568 171.5L569 172.5L568 171.5ZM570.333 172.167L570.667 172.833L570.333 172.167Z" fill="#FF671D"/>
<path d="M572 171.5L573 172.5L572 171.5Z" fill="#FF0B01"/>
<path d="M74 172.5L75 173.5L74 172.5ZM77 172.5L76 175.5V176.5L80 175.5L77 172.5ZM79 172.5L80 173.5L79 172.5ZM81.6667 172.833L82.3333 173.167L81.6667 172.833ZM567.667 172.833L568.333 173.167L567.667 172.833Z" fill="#FF9D6C"/>
<path d="M572.333 173.167L572.667 173.833L572.333 173.167Z" fill="#FF671D"/>
<path d="M576 172.5L577 173.5L576 172.5Z" fill="#FF9D6C"/>
<path d="M70 175.5L73 177.5H74V173.5L70 175.5Z" fill="#FFEEE6"/>
<path d="M74 173.5L75 174.5L74 173.5ZM76 173.5L77 174.5L76 173.5ZM78 173.5L79 174.5L78 173.5Z" fill="#FF0B01"/>
<path d="M80 173.5L81 174.5L80 173.5ZM569.667 173.833L570.333 174.167L569.667 173.833Z" fill="#FF9D6C"/>
<path d="M574 173.5L575 174.5L574 173.5ZM74.3333 175.167L74.6667 175.833L74.3333 175.167ZM76 174.5L77 175.5L76 174.5Z" fill="#FF671D"/>
<path d="M77 174.5L78 175.5L77 174.5Z" fill="#FFEEE6"/>
<path d="M571.667 174.833L572.333 175.167L571.667 174.833ZM574 174.5L573 176.5H575L574 174.5ZM576 174.5L575 177.5L576 174.5Z" fill="#FF9D6C"/>
<path d="M67 176.5L70 179.5H71L69 175.5L67 176.5Z" fill="#FFEEE6"/>
<path d="M69 175.5L70 176.5L69 175.5Z" fill="#FF0B01"/>
<path d="M70.3333 176.167L70.6667 176.833L70.3333 176.167ZM72 175.5L71 179.5L74 178.5L72 175.5ZM578 175.5L577 178.5L586 182.5V181.5L581 176.5H580V178.5H579L578 175.5Z" fill="#FF9D6C"/>
<path d="M71.3333 177.167L71.6667 177.833L71.3333 177.167Z" fill="#FF0B01"/>
<path d="M74.6667 176.833L75.3333 177.167L74.6667 176.833Z" fill="#FF9D6C"/>
<path d="M579.333 177.167L579.667 177.833L579.333 177.167Z" fill="#FF0B01"/>
<path d="M65 177.5L62 181.5L60 180.5L43 189.5L36 193.5L37 196.5L42 195.5L41 192.5L45 194.5V193.5L43 192.5H48L49 191.5H50V188.5H51V190.5H52L53 185.5H54V188.5H55V184.5H56V187.5L62 184.5L60 182.5L63 183.5H64L63 180.5L67 181.5V180.5L65 179.5L67 178.5L65 177.5Z" fill="#FFEEE6"/>
<path d="M66 177.5L67 178.5L66 177.5Z" fill="#FF9D6C"/>
<path d="M67 177.5L68 178.5L67 177.5Z" fill="#FF0B01"/>
<path d="M68 177.5L69 178.5L68 177.5Z" fill="#FF9D6C"/>
<path d="M581.333 178.167L581.667 178.833L581.333 178.167Z" fill="#FF0B01"/>
<path d="M582 177.5L583 178.5L582 177.5Z" fill="#FF9D6C"/>
<path d="M68.3333 179.167L68.6667 179.833L68.3333 179.167Z" fill="#FFEEE6"/>
<path d="M583.333 179.167L583.667 179.833L583.333 179.167Z" fill="#FF0B01"/>
<path d="M584 178.5L585 179.5L584 178.5ZM65 179.5L66 180.5L65 179.5Z" fill="#FF9D6C"/>
<path d="M66 179.5L67 180.5L66 179.5Z" fill="#FF0B01"/>
<path d="M69 179.5L70 180.5L69 179.5Z" fill="#FF9D6C"/>
<path d="M585.333 180.167L585.667 180.833L585.333 180.167Z" fill="#FF0B01"/>
<path d="M586 179.5L587 180.5L586 179.5Z" fill="#FF9D6C"/>
<path d="M61 180.5L62 181.5L61 180.5Z" fill="#FF0B01"/>
<path d="M63 180.5L64 181.5L63 180.5Z" fill="#FF9D6C"/>
<path d="M64.3333 181.167L64.6666 181.833L64.3333 181.167Z" fill="#FF0B01"/>
<path d="M67 180.5L68 181.5L67 180.5Z" fill="#FF9D6C"/>
<path d="M587 180.5L588 181.5L587 180.5Z" fill="#FF671D"/>
<path d="M59 181.5L60 182.5L59 181.5ZM65.6667 181.833L66.3333 182.167L65.6667 181.833Z" fill="#FF9D6C"/>
<path d="M587 181.5L588 182.5L587 181.5Z" fill="#FF0B01"/>
<path d="M589 181.5L590 182.5L589 181.5Z" fill="#FF671D"/>
<path d="M57 182.5L58 183.5L57 182.5ZM60 182.5L61 183.5L60 182.5Z" fill="#FF9D6C"/>
<path d="M61 182.5L62 183.5L61 182.5ZM589 182.5L590 183.5L589 182.5Z" fill="#FF0B01"/>
<path d="M591 182.5L592 183.5L591 182.5Z" fill="#FF671D"/>
<path d="M58 183.5L59 184.5L58 183.5Z" fill="#FF9D6C"/>
<path d="M59 183.5L60 184.5L59 183.5Z" fill="#FF0B01"/>
<path d="M62 183.5L63 184.5L62 183.5ZM589 183.5L590 184.5L589 183.5Z" fill="#FF9D6C"/>
<path d="M591 183.5L592 184.5L591 183.5Z" fill="#FF0B01"/>
<path d="M55 184.5V188.5H56L55 184.5Z" fill="#FF9D6C"/>
<path d="M57 184.5L58 185.5L57 184.5Z" fill="#FF0B01"/>
<path d="M60 184.5L61 185.5L60 184.5ZM591 184.5L592 185.5L591 184.5ZM599 184.5L600 185.5L599 184.5Z" fill="#FF9D6C"/>
<path d="M600 184.5V189.5H601V187.5H602V190.5H603V188.5H604C605.094 191.702 608.922 195.347 612 192.5H613V195.5H614V192.5H615V196.5H616V193.5H617V197.5H618V195.5H619V198.5H620V196.5H621V199.5H622V196.5H623V199.5H624V197.5H625V201.5H626V199.5H627V202.5H628L630 204.5H631L632 202.5L638 204.5V203.5L636 202.5L634 203.5V201.5L623 195.5L600 184.5Z" fill="#FFEEE6"/>
<path d="M53 185.5L54 186.5L53 185.5Z" fill="#FF0B01"/>
<path d="M58 185.5L59 186.5L58 185.5ZM593 185.5L594 186.5L593 185.5Z" fill="#FF9D6C"/>
<path d="M599 185.5L600 186.5L599 185.5Z" fill="#FF0B01"/>
<path d="M53 186.5L52 190.5H53V186.5ZM57 186.5L58 187.5L57 186.5ZM595 186.5L596 187.5L595 186.5ZM599 186.5V189.5H600L599 186.5ZM48 187.5L49 188.5L48 187.5Z" fill="#FF9D6C"/>
<path d="M52.3333 188.167L52.6666 188.833L52.3333 188.167Z" fill="#FF0B01"/>
<path d="M597 187.5L598 188.5L597 187.5ZM601 187.5V190.5H602L601 187.5Z" fill="#FF9D6C"/>
<path d="M50 188.5L51 189.5L50 188.5Z" fill="#FF671D"/>
<path d="M603 188.5V191.5H604L603 188.5ZM48 189.5V192.5H49L48 189.5Z" fill="#FF9D6C"/>
<path d="M50 189.5L51 190.5L50 189.5Z" fill="#FF0B01"/>
<path d="M605 189.5L606 190.5L605 189.5Z" fill="#FF9D6C"/>
<path d="M48 190.5L49 191.5L48 190.5Z" fill="#FF0B01"/>
<path d="M50 190.5L51 191.5L50 190.5ZM607 190.5L608 191.5L607 190.5Z" fill="#FF9D6C"/>
<path d="M46 191.5L47 192.5L46 191.5Z" fill="#FF0B01"/>
<path d="M605 191.5L606 192.5L605 191.5Z" fill="#FF9D6C"/>
<path d="M608 191.5L609 192.5L608 191.5Z" fill="#FF0B01"/>
<path d="M609 191.5L610 192.5L609 191.5ZM41 192.5L44 195.5V194.5L41 192.5ZM43 192.5L44 193.5L43 192.5Z" fill="#FF9D6C"/>
<path d="M45 192.5L46 193.5L45 192.5Z" fill="#FFEEE6"/>
<path d="M46 192.5L47 193.5L46 192.5ZM607 192.5L608 193.5L607 192.5Z" fill="#FF9D6C"/>
<path d="M610 192.5L611 193.5L610 192.5ZM612.333 193.167L612.667 193.833L612.333 193.167ZM614 192.5V195.5H615L614 192.5ZM37 193.5L38 194.5L37 193.5ZM42 193.5L43 194.5L42 193.5Z" fill="#FF0B01"/>
<path d="M609 193.5L610 194.5L609 193.5Z" fill="#FF9D6C"/>
<path d="M616 193.5L617 194.5L616 193.5Z" fill="#FF0B01"/>
<path d="M34 194.5L31 196.5L32 199.5L29 197.5L22 203.5L20 202.5L17 204.5V205.5L22 206.5H23V203.5H24V205.5H25L24 201.5L26 200.5H27L26 204.5H27L28 200.5H29V202.5H30L29 199.5L32 201.5L33 197.5H34V199.5H35L34 194.5Z" fill="#FFEEE6"/>
<path d="M35 194.5L36 198.5L42 196.5V195.5L39 194.5H38V197.5H37L35 194.5Z" fill="#FF9D6C"/>
<path d="M40 194.5L41 195.5L40 194.5Z" fill="#FF0B01"/>
<path d="M611.667 194.833L612.333 195.167L611.667 194.833Z" fill="#FF9D6C"/>
<path d="M616.333 195.167L616.667 195.833L616.333 195.167Z" fill="#FF671D"/>
<path d="M35.3333 196.167L35.6667 196.833L35.3333 196.167ZM39 195.5L40 196.5L39 195.5Z" fill="#FF0B01"/>
<path d="M613.667 195.833L614.333 196.167L613.667 195.833Z" fill="#FF9D6C"/>
<path d="M618.333 196.167L618.667 196.833L618.333 196.167Z" fill="#FF671D"/>
<path d="M37 196.5L38 197.5L37 196.5Z" fill="#FF0B01"/>
<path d="M615.667 196.833L616.333 197.167L615.667 196.833Z" fill="#FF9D6C"/>
<path d="M620.333 197.167L620.667 197.833L620.333 197.167Z" fill="#FF671D"/>
<path d="M622 196.5L623 197.5L622 196.5Z" fill="#FF0B01"/>
<path d="M30 197.5L31 198.5L30 197.5Z" fill="#FF671D"/>
<path d="M31.3333 198.167L31.6667 198.833L31.3333 198.167Z" fill="#FF9D6C"/>
<path d="M33.3333 198.167L33.6667 198.833L33.3333 198.167Z" fill="#FF671D"/>
<path d="M617.667 197.833L618.333 198.167L617.667 197.833ZM622 197.5L621 200.5L625 201.5V197.5H624V200.5H623L622 197.5ZM28 198.5L29 199.5L28 198.5ZM35 198.5L36 199.5L35 198.5ZM619.667 198.833L620.333 199.167L619.667 198.833ZM29 199.5L30 200.5L29 199.5Z" fill="#FF9D6C"/>
<path d="M30.3333 200.167L30.6667 200.833L30.3333 200.167Z" fill="#FF0B01"/>
<path d="M33.6667 199.833L34.3333 200.167L33.6667 199.833Z" fill="#FF9D6C"/>
<path d="M623 199.5L624 200.5L623 199.5Z" fill="#FF0B01"/>
<path d="M626 199.5L625 202.5L626 199.5Z" fill="#FF9D6C"/>
<path d="M26 200.5L27 201.5L26 200.5Z" fill="#FF0B01"/>
<path d="M28.3333 201.167L28.6667 201.833L28.3333 201.167Z" fill="#FF671D"/>
<path d="M32 200.5L33 201.5L32 200.5ZM628 200.5L630 204.5L628 200.5ZM24.3333 202.167L24.6667 202.833L24.3333 202.167ZM26.3333 202.167L26.6667 202.833L26.3333 202.167ZM30.6667 201.833L31.3333 202.167L30.6667 201.833Z" fill="#FF9D6C"/>
<path d="M629.333 202.167L629.667 202.833L629.333 202.167Z" fill="#FF0B01"/>
<path d="M632 201.5L633 202.5L632 201.5Z" fill="#FF671D"/>
<path d="M21 202.5L22 203.5L21 202.5ZM25.3333 203.167L25.6667 203.833L25.3333 203.167Z" fill="#FF0B01"/>
<path d="M28.6667 202.833L29.3333 203.167L28.6667 202.833ZM631 202.5L630 205.5L631 202.5ZM634 202.5L635 203.5L634 202.5Z" fill="#FF9D6C"/>
<path d="M23.3333 204.167L23.6667 204.833L23.3333 204.167Z" fill="#FF0B01"/>
<path d="M27 203.5L28 204.5L27 203.5Z" fill="#FF9D6C"/>
<path d="M632 203.5L633 204.5L632 203.5Z" fill="#FF0B01"/>
<path d="M633 203.5V206.5H634L633 203.5Z" fill="#FF9D6C"/>
<path d="M636 203.5L637 204.5L636 203.5Z" fill="#FF671D"/>
<path d="M21 204.5V207.5H22L21 204.5Z" fill="#FF9D6C"/>
<path d="M632 204.5L633 205.5L632 204.5Z" fill="#FFEEE6"/>
<path d="M634 204.5L635 205.5L634 204.5Z" fill="#FF0B01"/>
<path d="M635 204.5V207.5H636L635 204.5Z" fill="#FF9D6C"/>
<path d="M636 206.5L639 205.5L636 206.5Z" fill="#FF0B01"/>
<path d="M639 204.5L638 205.5V207.5V208.5L642 207.5V210.5H643L642 205.5L639 204.5ZM16 205.5L7 210.5V212.5L5 211.5L4 212.5V216.5L9 214.5L7 212.5L10 213.5H11V210.5H12V212.5H13V209.5H14L16 210.5L15 208.5L17 209.5H18L16 205.5Z" fill="#FFEEE6"/>
<path d="M19 205.5L20 206.5L19 205.5Z" fill="#FF9D6C"/>
<path d="M20 205.5L21 206.5L20 205.5Z" fill="#FF0B01"/>
<path d="M23 205.5L24 206.5L23 205.5Z" fill="#FF9D6C"/>
<path d="M634 205.5L635 206.5L634 205.5Z" fill="#FFEEE6"/>
<path d="M637 205.5V208.5H638L637 205.5ZM640 205.5L641 206.5L640 205.5ZM15 206.5L16 207.5L15 206.5Z" fill="#FF9D6C"/>
<path d="M19 206.5V208.5L21 206.5H19ZM636 206.5L637 207.5L636 206.5Z" fill="#FFEEE6"/>
<path d="M638 206.5L639 207.5L638 206.5Z" fill="#FF0B01"/>
<path d="M639 206.5L640 207.5L639 206.5Z" fill="#FF9D6C"/>
<path d="M642 206.5L643 207.5L642 206.5Z" fill="#FF671D"/>
<path d="M16 207.5V210.5H17L16 207.5Z" fill="#FF9D6C"/>
<path d="M640.333 208.167L640.667 208.833L640.333 208.167Z" fill="#FF0B01"/>
<path d="M641 207.5L642 208.5L641 207.5Z" fill="#FF9D6C"/>
<path d="M15 208.5L16 209.5L15 208.5Z" fill="#FF0B01"/>
<path d="M18 208.5L19 209.5L18 208.5ZM639 208.5L640 209.5L639 208.5Z" fill="#FF9D6C"/>
<path d="M642 208.5L643 209.5L642 208.5Z" fill="#FF0B01"/>
<path d="M13 209.5L14 210.5L13 209.5Z" fill="#FF671D"/>
<path d="M641 209.5L642 210.5L641 209.5ZM8 210.5L9 211.5L8 210.5Z" fill="#FF9D6C"/>
<path d="M11 210.5L12 211.5L11 210.5Z" fill="#FF671D"/>
<path d="M13 210.5L14 211.5L13 210.5Z" fill="#FF0B01"/>
<path d="M6 211.5L7 212.5L6 211.5Z" fill="#FF671D"/>
<path d="M9 211.5V214.5H10L9 211.5Z" fill="#FF9D6C"/>
<path d="M11 211.5L12 212.5L11 211.5Z" fill="#FF0B01"/>
<path d="M7 212.5L8 213.5L7 212.5Z" fill="#FF9D6C"/>
<path d="M8 212.5L9 213.5L8 212.5Z" fill="#FF671D"/>
<path d="M11 212.5L12 213.5L11 212.5ZM4 213.5L5 214.5L4 213.5Z" fill="#FF9D6C"/>
<path d="M6 213.5L7 214.5L6 213.5Z" fill="#FF0B01"/>
<path d="M7 214.5L8 215.5L7 214.5ZM6 215.5L7 216.5L6 215.5ZM4 216.5L5 217.5L4 216.5ZM4 254.5V289.5H5L4 254.5ZM327 290.5C330.746 295.695 341.16 293.5 347 293.5H405H563C587.101 293.5 616.567 288.921 640 294.5L641 290.5H327Z" fill="#FF9D6C"/>
<path d="M4 291.5V294.5H330V293.5L328 291.5H4ZM641 291.5V294.5H643V291.5H641Z" fill="#FFEEE6"/>
<path d="M327 292.5L328 293.5L327 292.5Z" fill="#FF671D"/>
<path d="M642 292.5L643 293.5L642 292.5Z" fill="#FF0B01"/>
<path d="M638 293.5L639 294.5L638 293.5Z" fill="#FFEEE6"/>
<path d="M640 293.5L641 294.5L640 293.5Z" fill="#FF0B01"/>
</g>
<defs>
<filter id="filter0_d_105_3" x="0" y="0.5" width="647" height="368" filterUnits="userSpaceOnUse" color-interpolation-filters="sRGB">
<feFlood flood-opacity="0" result="BackgroundImageFix"/>
<feColorMatrix in="SourceAlpha" type="matrix" values="0 0 0 0 0 0 0 0 0 0 0 0 0 0 0 0 0 0 127 0" result="hardAlpha"/>
<feOffset dy="4"/>
<feGaussianBlur stdDeviation="2"/>
<feComposite in2="hardAlpha" operator="out"/>
<feColorMatrix type="matrix" values="0 0 0 0 0 0 0 0 0 0 0 0 0 0 0 0 0 0 0.25 0"/>
<feBlend mode="normal" in2="BackgroundImageFix" result="effect1_dropShadow_105_3"/>
<feBlend mode="normal" in="SourceGraphic" in2="effect1_dropShadow_105_3" result="shape"/>
</filter>
<clipPath id="clip0_105_3">
<rect width="639" height="360" fill="white" transform="translate(4 0.5)"/>
</clipPath>
</defs>
</svg>
