<svg width="112" height="125" viewBox="0 0 112 125" fill="none" xmlns="http://www.w3.org/2000/svg">
<path id="Vector" d="M55.5904 0.332764C56.7311 2.91848 59.0923 6.24297 62.4616 9.63438C67.237 14.4498 73.7634 19.5222 80.6347 23.9254C87.506 28.342 94.6956 32.1162 100.691 34.4182C103.689 35.5424 106.422 36.3186 108.571 36.6399C109.473 36.7737 110.269 36.8272 110.932 36.8005C105.042 27.7531 95.969 19.0377 85.8611 12.4075C75.9654 5.91641 65.1412 1.45966 55.5904 0.332764ZM50.7884 1.43825C39.7254 8.97858 35.9316 21.8643 33.4113 34.6323C35.5602 39.263 42.8029 47.0255 52.3272 53.9315C62.0372 60.9713 74.0552 67.3419 85.0917 70.0721C94.2446 67.7166 99.975 63.0056 104.008 57.1971C107.297 52.4861 109.42 47.0255 111.091 41.6453C110.056 41.6721 108.969 41.565 107.854 41.4044C105.201 41.0297 102.23 40.1464 98.9934 38.9151C92.9977 36.6131 86.206 33.0798 79.547 28.9309L65.6187 41.8059L72.092 23.9254C67.237 20.4323 62.7535 16.7304 59.0923 13.0392C55.1924 9.12313 52.1149 5.30344 50.7884 1.43825ZM36.6479 46.9452L0.622843 90.1743L0.564478 90.2546C0.431828 90.3885 0.397339 90.4153 0.397339 90.7097C0.397339 91.0041 0.471623 91.5662 0.782024 92.3157C1.40548 93.8147 2.8832 95.9561 4.98703 98.2581C5.13825 98.4187 5.30008 98.606 5.45926 98.7666L12.625 92.6369L7.49411 100.828C11.6089 104.843 17.0953 109.206 22.8789 113.06C28.4767 116.808 34.3929 120.1 39.4866 122.242L49.515 103.156L46.3049 124.463C47.8967 124.811 49.2762 124.918 50.2578 124.838C51.8496 124.677 52.2741 124.356 52.619 123.473L52.6455 123.419L75.7797 72.2135C73.5512 71.3837 71.2961 70.4469 69.0676 69.403L61.8249 76.5231L64.9555 67.3954C59.4903 64.5581 54.2639 61.2657 49.5415 57.8395C44.5804 54.2527 40.1764 50.5588 36.6479 46.9452Z" fill="#A5846A"/>
</svg>
