<svg width="774" height="218" viewBox="0 0 774 218" fill="none" xmlns="http://www.w3.org/2000/svg">
<g clip-path="url(#clip0_114_9)">
<path d="M103.594 79.2491H51.4058V193.056H103.594V79.2491Z" fill="#8F2265"/>
<path d="M93.1566 185.521H61.8435C56.0789 185.521 51.4058 187.69 51.4058 190.365V200.684C51.4058 203.359 56.0789 205.528 61.8435 205.528H93.1566C98.9212 205.528 103.594 203.359 103.594 200.684V190.365C103.594 187.69 98.9212 185.521 93.1566 185.521Z" fill="black"/>
<path d="M103.594 78.8594C103.595 80.9241 102.921 82.9686 101.61 84.8763C100.299 86.784 98.3769 88.5174 95.9538 89.9775C93.5306 91.4377 90.6537 92.596 87.4874 93.3862C84.3211 94.1764 80.9273 94.5832 77.5 94.5832C74.0727 94.5832 70.679 94.1764 67.5127 93.3862C64.3464 92.596 61.4695 91.4377 59.0463 89.9775C56.6231 88.5174 54.7012 86.784 53.3902 84.8763C52.0792 82.9686 51.4049 80.9241 51.4058 78.8594C51.4049 76.7947 52.0792 74.7501 53.3902 72.8424C54.7012 70.9347 56.6231 69.2013 59.0463 67.7412C61.4695 66.281 64.3464 65.1228 67.5127 64.3325C70.679 63.5423 74.0727 63.1355 77.5 63.1355C80.9273 63.1355 84.3211 63.5423 87.4874 64.3325C90.6537 65.1228 93.5306 66.281 95.9538 67.7412C98.3769 69.2013 100.299 70.9347 101.61 72.8424C102.921 74.7501 103.595 76.7947 103.594 78.8594V78.8594Z" fill="black"/>
<path d="M82.2181 8.83432H72.7818C69.8995 8.83432 67.563 9.91879 67.563 11.2565V68.2524C67.563 69.5901 69.8995 70.6746 72.7818 70.6746H82.2181C85.1004 70.6746 87.4369 69.5901 87.4369 68.2524V11.2565C87.4369 9.91879 85.1004 8.83432 82.2181 8.83432Z" fill="black"/>
<path d="M85.745 12.8929H69.2549C67.8138 12.8929 66.6455 13.9773 66.6455 15.3151V21.75C66.6455 23.0877 67.8138 24.1722 69.2549 24.1722H85.745C87.1861 24.1722 88.3544 23.0877 88.3544 21.75V15.3151C88.3544 13.9773 87.1861 12.8929 85.745 12.8929Z" fill="black"/>
<g opacity="0.1" filter="url(#filter0_f_114_9)">
<path d="M148.768 191.097C148.916 192.129 147.806 193.305 145.502 194.559C143.198 195.813 139.745 197.12 135.34 198.405C130.936 199.691 125.665 200.929 119.831 202.051C113.996 203.172 107.71 204.153 101.333 204.939C94.9567 205.725 88.6132 206.301 82.6653 206.632C76.7174 206.964 71.2815 207.045 66.6681 206.871C62.0546 206.698 58.3539 206.273 55.7772 205.62C53.2006 204.968 51.7984 204.101 51.6508 203.07C51.5032 202.038 52.6131 200.862 54.917 199.608C57.2209 198.354 60.6738 197.047 65.0786 195.761C69.4833 194.476 74.7536 193.237 80.5885 192.116C86.4234 190.995 92.7088 190.014 99.0856 189.227C105.462 188.441 111.806 187.866 117.754 187.535C123.702 187.203 129.138 187.122 133.751 187.296C138.364 187.469 142.065 187.894 144.642 188.546C147.218 189.199 148.621 190.065 148.768 191.097V191.097Z" fill="black"/>
</g>
<path d="M67.2394 148.373C67.2394 147.125 67.5094 146.015 68.0494 145.043C68.5894 144.059 69.3394 143.297 70.2994 142.757C71.2714 142.205 72.3694 141.929 73.5934 141.929C75.0934 141.929 76.3774 142.325 77.4454 143.117C78.5134 143.909 79.2274 144.989 79.5874 146.357H76.2034C75.9514 145.829 75.5914 145.427 75.1234 145.151C74.6674 144.875 74.1454 144.737 73.5574 144.737C72.6094 144.737 71.8414 145.067 71.2534 145.727C70.6654 146.387 70.3714 147.269 70.3714 148.373C70.3714 149.477 70.6654 150.359 71.2534 151.019C71.8414 151.679 72.6094 152.009 73.5574 152.009C74.1454 152.009 74.6674 151.871 75.1234 151.595C75.5914 151.319 75.9514 150.917 76.2034 150.389H79.5874C79.2274 151.757 78.5134 152.837 77.4454 153.629C76.3774 154.409 75.0934 154.799 73.5934 154.799C72.3694 154.799 71.2714 154.529 70.2994 153.989C69.3394 153.437 68.5894 152.675 68.0494 151.703C67.5094 150.731 67.2394 149.621 67.2394 148.373ZM89.3384 152.477H84.6224L83.8664 154.709H80.6444L85.2164 142.073H88.7804L93.3524 154.709H90.0944L89.3384 152.477ZM88.5464 150.101L86.9804 145.475L85.4324 150.101H88.5464Z" fill="white"/>
</g>
<g clip-path="url(#clip1_114_9)">
<path d="M257.926 79.2491H206.074V193.056H257.926V79.2491Z" fill="black"/>
<path d="M247.555 185.521H216.444C210.717 185.521 206.074 187.69 206.074 190.365V200.684C206.074 203.359 210.717 205.528 216.444 205.528H247.555C253.283 205.528 257.926 203.359 257.926 200.684V190.365C257.926 187.69 253.283 185.521 247.555 185.521Z" fill="black"/>
<path d="M257.926 78.8594C257.927 80.9241 257.257 82.9686 255.954 84.8763C254.652 86.784 252.742 88.5174 250.335 89.9775C247.927 91.4377 245.069 92.596 241.923 93.3862C238.777 94.1764 235.405 94.5832 232 94.5832C228.595 94.5832 225.223 94.1764 222.077 93.3862C218.931 92.596 216.073 91.4377 213.665 89.9775C211.258 88.5174 209.348 86.784 208.046 84.8763C206.743 82.9686 206.073 80.9241 206.074 78.8594C206.073 76.7947 206.743 74.7501 208.046 72.8424C209.348 70.9347 211.258 69.2013 213.665 67.7412C216.073 66.281 218.931 65.1228 222.077 64.3325C225.223 63.5423 228.595 63.1355 232 63.1355C235.405 63.1355 238.777 63.5423 241.923 64.3325C245.069 65.1228 247.927 66.281 250.335 67.7412C252.742 69.2013 254.652 70.9347 255.954 72.8424C257.257 74.7501 257.927 76.7947 257.926 78.8594V78.8594Z" fill="black"/>
<path d="M236.688 8.83432H227.312C224.449 8.83432 222.127 9.91879 222.127 11.2565V68.2524C222.127 69.5901 224.449 70.6746 227.312 70.6746H236.688C239.551 70.6746 241.873 69.5901 241.873 68.2524V11.2565C241.873 9.91879 239.551 8.83432 236.688 8.83432Z" fill="black"/>
<path d="M240.192 12.8929H223.808C222.376 12.8929 221.216 13.9773 221.216 15.3151V21.75C221.216 23.0877 222.376 24.1722 223.808 24.1722H240.192C241.624 24.1722 242.784 23.0877 242.784 21.75V15.3151C242.784 13.9773 241.624 12.8929 240.192 12.8929Z" fill="black"/>
<g opacity="0.1" filter="url(#filter1_f_114_9)">
<path d="M302.809 191.097C302.955 192.129 301.852 193.305 299.563 194.559C297.274 195.813 293.844 197.12 289.467 198.405C285.091 199.691 279.855 200.929 274.057 202.051C268.26 203.172 262.015 204.153 255.68 204.939C249.344 205.725 243.042 206.301 237.132 206.632C231.223 206.964 225.822 207.045 221.238 206.871C216.654 206.698 212.977 206.273 210.417 205.62C207.857 204.968 206.464 204.101 206.318 203.07C206.171 202.038 207.274 200.862 209.563 199.608C211.852 198.354 215.282 197.047 219.659 195.761C224.035 194.476 229.271 193.237 235.069 192.116C240.866 190.995 247.111 190.014 253.446 189.227C259.782 188.441 266.085 187.866 271.994 187.535C277.904 187.203 283.304 187.122 287.888 187.296C292.472 187.469 296.149 187.894 298.709 188.546C301.269 189.199 302.662 190.065 302.809 191.097V191.097Z" fill="black"/>
</g>
</g>
<g clip-path="url(#clip2_114_9)">
<path d="M412.594 79.2491H360.406V193.056H412.594V79.2491Z" fill="#8F2265"/>
<path d="M402.157 185.521H370.843C365.079 185.521 360.406 187.69 360.406 190.365V200.684C360.406 203.359 365.079 205.528 370.843 205.528H402.157C407.921 205.528 412.594 203.359 412.594 200.684V190.365C412.594 187.69 407.921 185.521 402.157 185.521Z" fill="black"/>
<path d="M412.594 78.8594C412.595 80.9241 411.921 82.9686 410.61 84.8763C409.299 86.784 407.377 88.5174 404.954 89.9775C402.531 91.4377 399.654 92.596 396.487 93.3862C393.321 94.1764 389.927 94.5832 386.5 94.5832C383.073 94.5832 379.679 94.1764 376.513 93.3862C373.346 92.596 370.469 91.4377 368.046 89.9775C365.623 88.5174 363.701 86.784 362.39 84.8763C361.079 82.9686 360.405 80.9241 360.406 78.8594C360.405 76.7947 361.079 74.7501 362.39 72.8424C363.701 70.9347 365.623 69.2013 368.046 67.7412C370.469 66.281 373.346 65.1228 376.513 64.3325C379.679 63.5423 383.073 63.1355 386.5 63.1355C389.927 63.1355 393.321 63.5423 396.487 64.3325C399.654 65.1228 402.531 66.281 404.954 67.7412C407.377 69.2013 409.299 70.9347 410.61 72.8424C411.921 74.7501 412.595 76.7947 412.594 78.8594V78.8594Z" fill="black"/>
<path d="M391.218 8.83432H381.782C378.9 8.83432 376.563 9.91879 376.563 11.2565V68.2524C376.563 69.5901 378.9 70.6746 381.782 70.6746H391.218C394.1 70.6746 396.437 69.5901 396.437 68.2524V11.2565C396.437 9.91879 394.1 8.83432 391.218 8.83432Z" fill="black"/>
<path d="M394.745 12.8929H378.255C376.814 12.8929 375.646 13.9773 375.646 15.3151V21.75C375.646 23.0877 376.814 24.1722 378.255 24.1722H394.745C396.186 24.1722 397.354 23.0877 397.354 21.75V15.3151C397.354 13.9773 396.186 12.8929 394.745 12.8929Z" fill="black"/>
<g opacity="0.1" filter="url(#filter2_f_114_9)">
<path d="M457.768 191.097C457.916 192.129 456.806 193.305 454.502 194.559C452.198 195.813 448.745 197.12 444.34 198.405C439.936 199.691 434.665 200.929 428.831 202.051C422.996 203.172 416.71 204.153 410.333 204.939C403.957 205.725 397.613 206.301 391.665 206.632C385.717 206.964 380.282 207.045 375.668 206.871C371.055 206.698 367.354 206.273 364.777 205.62C362.201 204.968 360.798 204.101 360.651 203.07C360.503 202.038 361.613 200.862 363.917 199.608C366.221 198.354 369.674 197.047 374.079 195.761C378.483 194.476 383.754 193.237 389.589 192.116C395.423 190.995 401.709 190.014 408.086 189.227C414.462 188.441 420.806 187.866 426.754 187.535C432.702 187.203 438.138 187.122 442.751 187.296C447.364 187.469 451.065 187.894 453.642 188.546C456.219 189.199 457.621 190.066 457.768 191.097V191.097Z" fill="black"/>
</g>
<path d="M374.913 148.373C374.913 147.125 375.183 146.015 375.723 145.043C376.263 144.059 377.013 143.297 377.973 142.757C378.945 142.205 380.043 141.929 381.267 141.929C382.767 141.929 384.051 142.325 385.119 143.117C386.187 143.909 386.901 144.989 387.261 146.357H383.877C383.625 145.829 383.265 145.427 382.797 145.151C382.341 144.875 381.819 144.737 381.231 144.737C380.283 144.737 379.515 145.067 378.927 145.727C378.339 146.387 378.045 147.269 378.045 148.373C378.045 149.477 378.339 150.359 378.927 151.019C379.515 151.679 380.283 152.009 381.231 152.009C381.819 152.009 382.341 151.871 382.797 151.595C383.265 151.319 383.625 150.917 383.877 150.389H387.261C386.901 151.757 386.187 152.837 385.119 153.629C384.051 154.409 382.767 154.799 381.267 154.799C380.043 154.799 378.945 154.529 377.973 153.989C377.013 153.437 376.263 152.675 375.723 151.703C375.183 150.731 374.913 149.621 374.913 148.373ZM397.012 152.477H392.296L391.54 154.709H388.318L392.89 142.073H396.454L401.026 154.709H397.768L397.012 152.477ZM396.22 150.101L394.654 145.475L393.106 150.101H396.22Z" fill="white"/>
</g>
<g clip-path="url(#clip3_114_9)">
<path d="M566.926 79.2491H515.074V193.056H566.926V79.2491Z" fill="black"/>
<path d="M556.555 185.521H525.444C519.717 185.521 515.074 187.69 515.074 190.365V200.684C515.074 203.359 519.717 205.528 525.444 205.528H556.555C562.283 205.528 566.926 203.359 566.926 200.684V190.365C566.926 187.69 562.283 185.521 556.555 185.521Z" fill="black"/>
<path d="M566.926 78.8594C566.927 80.9241 566.257 82.9686 564.954 84.8763C563.652 86.784 561.742 88.5174 559.335 89.9775C556.927 91.4377 554.069 92.596 550.923 93.3862C547.777 94.1764 544.405 94.5832 541 94.5832C537.595 94.5832 534.223 94.1764 531.077 93.3862C527.931 92.596 525.073 91.4377 522.665 89.9775C520.258 88.5174 518.348 86.784 517.046 84.8763C515.743 82.9686 515.073 80.9241 515.074 78.8594C515.073 76.7947 515.743 74.7501 517.046 72.8424C518.348 70.9347 520.258 69.2013 522.665 67.7412C525.073 66.281 527.931 65.1228 531.077 64.3325C534.223 63.5423 537.595 63.1355 541 63.1355C544.405 63.1355 547.777 63.5423 550.923 64.3325C554.069 65.1228 556.927 66.281 559.335 67.7412C561.742 69.2013 563.652 70.9347 564.954 72.8424C566.257 74.7501 566.927 76.7947 566.926 78.8594V78.8594Z" fill="black"/>
<path d="M545.688 8.83432H536.312C533.449 8.83432 531.127 9.91879 531.127 11.2565V68.2524C531.127 69.5901 533.449 70.6746 536.312 70.6746H545.688C548.551 70.6746 550.873 69.5901 550.873 68.2524V11.2565C550.873 9.91879 548.551 8.83432 545.688 8.83432Z" fill="black"/>
<path d="M549.192 12.8929H532.808C531.376 12.8929 530.216 13.9773 530.216 15.3151V21.75C530.216 23.0877 531.376 24.1722 532.808 24.1722H549.192C550.624 24.1722 551.784 23.0877 551.784 21.75V15.3151C551.784 13.9773 550.624 12.8929 549.192 12.8929Z" fill="black"/>
<g opacity="0.1" filter="url(#filter3_f_114_9)">
<path d="M611.809 191.097C611.955 192.129 610.852 193.305 608.563 194.559C606.274 195.813 602.844 197.12 598.467 198.405C594.091 199.691 588.855 200.929 583.058 202.051C577.26 203.172 571.015 204.153 564.68 204.939C558.344 205.725 552.042 206.301 546.132 206.632C540.223 206.964 534.822 207.045 530.238 206.871C525.654 206.698 521.977 206.273 519.417 205.62C516.857 204.968 515.464 204.101 515.318 203.07C515.171 202.038 516.274 200.862 518.563 199.608C520.852 198.354 524.282 197.047 528.659 195.761C533.035 194.476 538.271 193.237 544.069 192.116C549.866 190.995 556.111 190.014 562.446 189.227C568.782 188.441 575.085 187.866 580.994 187.535C586.904 187.203 592.304 187.122 596.888 187.296C601.472 187.469 605.149 187.894 607.709 188.547C610.269 189.199 611.662 190.066 611.809 191.097V191.097Z" fill="black"/>
</g>
</g>
<g clip-path="url(#clip4_114_9)">
<path d="M722.263 79.2491H669.737V193.056H722.263V79.2491Z" fill="#8F2265"/>
<path d="M711.758 185.521H680.242C674.441 185.521 669.737 187.69 669.737 190.365V200.684C669.737 203.359 674.441 205.528 680.242 205.528H711.758C717.559 205.528 722.263 203.359 722.263 200.684V190.365C722.263 187.69 717.559 185.521 711.758 185.521Z" fill="black"/>
<path d="M722.263 78.8594C722.263 80.9241 721.585 82.9686 720.265 84.8763C718.946 86.784 717.012 88.5174 714.573 89.9775C712.134 91.4377 709.238 92.596 706.052 93.3862C702.865 94.1764 699.449 94.5832 696 94.5832C692.551 94.5832 689.135 94.1764 685.948 93.3862C682.761 92.596 679.866 91.4377 677.427 89.9775C674.988 88.5174 673.054 86.784 671.735 84.8763C670.415 82.9686 669.736 80.9241 669.737 78.8594C669.736 76.7947 670.415 74.7501 671.735 72.8424C673.054 70.9347 674.988 69.2013 677.427 67.7412C679.866 66.281 682.761 65.1228 685.948 64.3325C689.135 63.5423 692.551 63.1355 696 63.1355C699.449 63.1355 702.865 63.5423 706.052 64.3325C709.238 65.1228 712.134 66.281 714.573 67.7412C717.012 69.2013 718.946 70.9347 720.265 72.8424C721.585 74.7501 722.263 76.7947 722.263 78.8594V78.8594Z" fill="black"/>
<path d="M700.749 8.83432H691.252C688.351 8.83432 685.999 9.91879 685.999 11.2565V68.2524C685.999 69.5901 688.351 70.6746 691.252 70.6746H700.749C703.65 70.6746 706.001 69.5901 706.001 68.2524V11.2565C706.001 9.91879 703.65 8.83432 700.749 8.83432Z" fill="black"/>
<path d="M704.298 12.8929H687.702C686.251 12.8929 685.075 13.9773 685.075 15.3151V21.75C685.075 23.0877 686.251 24.1722 687.702 24.1722H704.298C705.749 24.1722 706.924 23.0877 706.924 21.75V15.3151C706.924 13.9773 705.749 12.8929 704.298 12.8929Z" fill="black"/>
<g opacity="0.1" filter="url(#filter4_f_114_9)">
<path d="M767.728 191.097C767.877 192.129 766.76 193.305 764.441 194.559C762.122 195.813 758.647 197.12 754.214 198.405C749.78 199.691 744.476 200.929 738.604 202.051C732.731 203.172 726.405 204.153 719.987 204.939C713.569 205.725 707.185 206.301 701.199 206.632C695.212 206.964 689.741 207.045 685.098 206.871C680.455 206.698 676.73 206.273 674.137 205.62C671.544 204.968 670.133 204.101 669.984 203.07C669.835 202.038 670.952 200.862 673.271 199.608C675.59 198.354 679.065 197.047 683.498 195.761C687.932 194.476 693.236 193.237 699.108 192.116C704.981 190.995 711.307 190.014 717.725 189.227C724.143 188.441 730.527 187.866 736.513 187.535C742.5 187.203 747.971 187.122 752.614 187.296C757.257 187.469 760.982 187.894 763.575 188.546C766.168 189.199 767.579 190.065 767.728 191.097V191.097Z" fill="black"/>
</g>
<path d="M683.973 142.923C683.973 141.675 684.243 140.565 684.783 139.593C685.323 138.609 686.073 137.847 687.033 137.307C688.005 136.755 689.103 136.479 690.327 136.479C691.827 136.479 693.111 136.875 694.179 137.667C695.247 138.459 695.961 139.539 696.321 140.907H692.937C692.685 140.379 692.325 139.977 691.857 139.701C691.401 139.425 690.879 139.287 690.291 139.287C689.343 139.287 688.575 139.617 687.987 140.277C687.399 140.937 687.105 141.819 687.105 142.923C687.105 144.027 687.399 144.909 687.987 145.569C688.575 146.229 689.343 146.559 690.291 146.559C690.879 146.559 691.401 146.421 691.857 146.145C692.325 145.869 692.685 145.467 692.937 144.939H696.321C695.961 146.307 695.247 147.387 694.179 148.179C693.111 148.959 691.827 149.349 690.327 149.349C689.103 149.349 688.005 149.079 687.033 148.539C686.073 147.987 685.323 147.225 684.783 146.253C684.243 145.281 683.973 144.171 683.973 142.923ZM706.072 147.027H701.356L700.6 149.259H697.378L701.95 136.623H705.514L710.086 149.259H706.828L706.072 147.027ZM705.28 144.651L703.714 140.025L702.166 144.651H705.28Z" fill="white"/>
</g>
<defs>
<filter id="filter0_f_114_9" x="40.2918" y="175.861" width="119.835" height="42.4454" filterUnits="userSpaceOnUse" color-interpolation-filters="sRGB">
<feFlood flood-opacity="0" result="BackgroundImageFix"/>
<feBlend mode="normal" in="SourceGraphic" in2="BackgroundImageFix" result="shape"/>
<feGaussianBlur stdDeviation="5.67296" result="effect1_foregroundBlur_114_9"/>
</filter>
<filter id="filter1_f_114_9" x="194.959" y="175.861" width="119.209" height="42.4454" filterUnits="userSpaceOnUse" color-interpolation-filters="sRGB">
<feFlood flood-opacity="0" result="BackgroundImageFix"/>
<feBlend mode="normal" in="SourceGraphic" in2="BackgroundImageFix" result="shape"/>
<feGaussianBlur stdDeviation="5.67296" result="effect1_foregroundBlur_114_9"/>
</filter>
<filter id="filter2_f_114_9" x="349.292" y="175.861" width="119.835" height="42.4454" filterUnits="userSpaceOnUse" color-interpolation-filters="sRGB">
<feFlood flood-opacity="0" result="BackgroundImageFix"/>
<feBlend mode="normal" in="SourceGraphic" in2="BackgroundImageFix" result="shape"/>
<feGaussianBlur stdDeviation="5.67296" result="effect1_foregroundBlur_114_9"/>
</filter>
<filter id="filter3_f_114_9" x="503.959" y="175.861" width="119.209" height="42.4454" filterUnits="userSpaceOnUse" color-interpolation-filters="sRGB">
<feFlood flood-opacity="0" result="BackgroundImageFix"/>
<feBlend mode="normal" in="SourceGraphic" in2="BackgroundImageFix" result="shape"/>
<feGaussianBlur stdDeviation="5.67296" result="effect1_foregroundBlur_114_9"/>
</filter>
<filter id="filter4_f_114_9" x="658.625" y="175.861" width="120.462" height="42.4454" filterUnits="userSpaceOnUse" color-interpolation-filters="sRGB">
<feFlood flood-opacity="0" result="BackgroundImageFix"/>
<feBlend mode="normal" in="SourceGraphic" in2="BackgroundImageFix" result="shape"/>
<feGaussianBlur stdDeviation="5.67296" result="effect1_foregroundBlur_114_9"/>
</filter>
<clipPath id="clip0_114_9">
<rect width="155" height="218" fill="white"/>
</clipPath>
<clipPath id="clip1_114_9">
<rect width="154" height="218" fill="white" transform="translate(155)"/>
</clipPath>
<clipPath id="clip2_114_9">
<rect width="155" height="218" fill="white" transform="translate(309)"/>
</clipPath>
<clipPath id="clip3_114_9">
<rect width="154" height="218" fill="white" transform="translate(464)"/>
</clipPath>
<clipPath id="clip4_114_9">
<rect width="156" height="218" fill="white" transform="translate(618)"/>
</clipPath>
</defs>
</svg>



